<svg width="137" height="137" viewBox="0 0 137 137" fill="none" xmlns="http://www.w3.org/2000/svg">
<g filter="url(#filter0_d_668:2)">
<circle cx="68.5" cy="64.5" r="38.5" fill="white"/>
</g>
<g filter="url(#filter1_d_668:2)">
<circle cx="68.5" cy="64.5" r="34.5" fill="#65C466"/>
</g>
<path d="M84.9545 71.2305L81.8497 64.1108C81.682 63.6087 81.281 63.2148 80.7761 63.0575L72.7428 60.5012L71.8826 58.3506L74.4225 55.3026C74.505 55.203 74.5501 55.0787 74.5501 54.95V53.85H75.1001C76.0098 53.85 76.7501 53.1097 76.7501 52.2V50C76.7501 49.0903 76.0098 48.35 75.1001 48.35H74.5501V47.8H75.1001C75.2525 47.8 75.3988 47.7368 75.5022 47.6251C75.6061 47.5135 75.6595 47.3633 75.6485 47.2109L75.2448 41.5542C75.1425 40.122 73.938 39 72.5014 39H64.6501C63.1338 39 61.9001 40.2337 61.9001 41.75V47.25C61.9001 47.5536 62.146 47.8 62.4501 47.8V48.35H61.9001C60.9904 48.35 60.2501 49.0903 60.2501 50V52.2C60.2501 53.1097 60.9904 53.85 61.9001 53.85H62.4501V54.95C62.4501 55.0787 62.4952 55.203 62.5772 55.302L65.1077 58.3391L64.104 60.5946L61.332 61.4609L56.2236 63.0575C55.7187 63.2148 55.3177 63.6087 55.1676 64.0651L52.0458 71.2305C51.9715 71.4005 51.9886 71.5968 52.0898 71.7514C52.1921 71.9065 52.3648 72 52.5501 72H84.4501C84.6355 72 84.8082 71.9065 84.9105 71.7514C85.0117 71.5963 85.0287 71.4005 84.9545 71.2305ZM74.5501 49.45H75.1001C75.4037 49.45 75.6501 49.6969 75.6501 50V52.2C75.6501 52.503 75.4037 52.75 75.1001 52.75H74.5501V49.45ZM62.4501 52.75H61.9001C61.5965 52.75 61.3501 52.503 61.3501 52.2V50C61.3501 49.6969 61.5965 49.45 61.9001 49.45H62.4501V52.75ZM72.5091 61.6264L74.4764 62.2414L70.9267 65.1706L69.4769 63.3589L72.5091 61.6264ZM69.9631 65.9093L68.5001 67.3723L67.0371 65.9093L68.5001 64.0805L69.9631 65.9093ZM65.2557 60.7129L66.0372 58.9573L68.2955 59.8609C68.3615 59.8868 68.4308 59.9 68.5001 59.9C68.5694 59.9 68.6387 59.8868 68.7042 59.8609L70.9438 58.965L71.6615 60.7602L68.5001 62.5664L65.2557 60.7129ZM63.0001 41.75C63.0001 40.8403 63.7404 40.1 64.6501 40.1H72.5014C73.3627 40.1 74.0859 40.7732 74.1475 41.6323L74.5094 46.7H73.4501H70.7001C68.1454 46.7 66.8501 45.7749 66.8501 43.95C66.8501 43.6464 66.6043 43.4 66.3001 43.4C65.996 43.4 65.7501 43.6464 65.7501 43.95C65.7501 45.4664 64.5165 46.7 63.0001 46.7V41.75ZM63.5501 54.7509V47.7582C64.7051 47.5921 65.6973 46.9129 66.2842 45.9581C67.0349 47.1483 68.5562 47.8 70.7001 47.8H73.4501V54.7509L70.9168 57.7907L68.5001 58.7576L66.0834 57.7913L63.5501 54.7509ZM64.5099 61.6199L67.663 63.3655L66.2193 65.1701L62.6294 62.2078L64.5099 61.6199ZM65.8711 70.9H53.3894L56.1944 64.4578C56.25 64.2906 56.3836 64.1597 56.5514 64.1069L61.3754 62.5994L65.9311 66.3592L66.7907 67.2189L65.8711 70.9ZM67.0047 70.9L67.6977 68.1258L68.1107 68.5388C68.2185 68.6461 68.3593 68.7 68.5001 68.7C68.6409 68.7 68.7817 68.6461 68.889 68.5388L69.302 68.1258L69.9956 70.9H67.0047ZM71.1291 70.9L70.209 67.2189L70.9449 66.483C71.0362 66.4659 71.1236 66.4345 71.1962 66.3746L75.7304 62.6329L75.968 62.7072L74.0282 68.5262C73.9693 68.7033 74.0034 68.898 74.12 69.0438L75.605 70.9H71.1291ZM75.1667 68.59L77.018 63.035L77.9035 63.3116L78.3809 69.0415L76.7958 70.6266L75.1667 68.59ZM78.0778 70.9L79.339 69.6388C79.4534 69.5244 79.5111 69.3655 79.4979 69.2044L79.0365 63.6658L80.4489 64.1069C80.6172 64.1592 80.7508 64.2901 80.824 64.5035L83.6108 70.9H78.0778Z" fill="white"/>
<path d="M50.6635 78.184L49.5275 79.688C49.9435 79.784 50.2741 79.976 50.5195 80.264C50.7701 80.5467 50.8955 80.8933 50.8955 81.304C50.8955 81.864 50.7061 82.304 50.3275 82.624C49.9541 82.944 49.4901 83.104 48.9355 83.104C48.4981 83.104 48.1115 83.0053 47.7755 82.808C47.4395 82.6053 47.1995 82.3173 47.0555 81.944L47.8395 81.488C48.0048 81.968 48.3701 82.208 48.9355 82.208C49.2555 82.208 49.5088 82.128 49.6955 81.968C49.8821 81.8027 49.9755 81.5813 49.9755 81.304C49.9755 81.0267 49.8821 80.808 49.6955 80.648C49.5088 80.488 49.2555 80.408 48.9355 80.408H48.7275L48.3595 79.856L49.5675 78.264H47.2235V77.4H50.6635V78.184ZM55.3118 82.312C54.9278 82.84 54.3891 83.104 53.6958 83.104C53.0078 83.104 52.4664 82.84 52.0718 82.312C51.6878 81.784 51.4958 81.08 51.4958 80.2C51.4958 79.32 51.6878 78.616 52.0718 78.088C52.4664 77.56 53.0078 77.296 53.6958 77.296C54.3891 77.296 54.9278 77.56 55.3118 78.088C55.7011 78.6107 55.8958 79.3147 55.8958 80.2C55.8958 81.0853 55.7011 81.7893 55.3118 82.312ZM53.6958 82.208C54.1118 82.208 54.4291 82.0347 54.6478 81.688C54.8664 81.3413 54.9758 80.8453 54.9758 80.2C54.9758 79.5547 54.8664 79.0587 54.6478 78.712C54.4291 78.3653 54.1118 78.192 53.6958 78.192C53.2851 78.192 52.9678 78.3653 52.7438 78.712C52.5251 79.0587 52.4158 79.5547 52.4158 80.2C52.4158 80.8453 52.5251 81.3413 52.7438 81.688C52.9678 82.0347 53.2851 82.208 53.6958 82.208ZM62.1028 82.496C61.6975 82.9013 61.1988 83.104 60.6068 83.104C60.0148 83.104 59.5162 82.9013 59.1108 82.496C58.7002 82.0853 58.4948 81.5867 58.4948 81C58.4948 80.4133 58.7002 79.9147 59.1108 79.504C59.5162 79.0987 60.0148 78.896 60.6068 78.896C61.1988 78.896 61.6975 79.0987 62.1028 79.504C62.5135 79.9147 62.7188 80.4133 62.7188 81C62.7188 81.5867 62.5135 82.0853 62.1028 82.496ZM59.3588 81C59.3588 81.3627 59.4788 81.664 59.7188 81.904C59.9588 82.144 60.2548 82.264 60.6068 82.264C60.9588 82.264 61.2548 82.144 61.4948 81.904C61.7348 81.664 61.8548 81.3627 61.8548 81C61.8548 80.6373 61.7348 80.336 61.4948 80.096C61.2548 79.856 60.9588 79.736 60.6068 79.736C60.2548 79.736 59.9588 79.856 59.7188 80.096C59.4788 80.336 59.3588 80.6373 59.3588 81ZM66.1961 80.592V79H67.0601V83H66.1961V81.408H64.3641V83H63.5001V79H64.3641V80.592H66.1961ZM71.2306 79.568V79H72.0946V83H71.2306V82.424C70.9053 82.8773 70.4386 83.104 69.8306 83.104C69.2813 83.104 68.8119 82.9013 68.4226 82.496C68.0333 82.0907 67.8386 81.592 67.8386 81C67.8386 80.408 68.0333 79.9093 68.4226 79.504C68.8119 79.0987 69.2813 78.896 69.8306 78.896C70.4386 78.896 70.9053 79.12 71.2306 79.568ZM69.0626 81.92C69.3026 82.16 69.6039 82.28 69.9666 82.28C70.3293 82.28 70.6306 82.16 70.8706 81.92C71.1106 81.6747 71.2306 81.368 71.2306 81C71.2306 80.632 71.1106 80.328 70.8706 80.088C70.6306 79.8427 70.3293 79.72 69.9666 79.72C69.6039 79.72 69.3026 79.8427 69.0626 80.088C68.8226 80.328 68.7026 80.632 68.7026 81C68.7026 81.3627 68.8226 81.6693 69.0626 81.92ZM73.4137 79H76.4777V83H75.6137V79.832H74.2777V81.32C74.2777 81.944 74.1417 82.392 73.8697 82.664C73.5977 82.936 73.2003 83.048 72.6777 83V82.192C72.923 82.2347 73.107 82.184 73.2297 82.04C73.3523 81.8907 73.4137 81.6373 73.4137 81.28V79ZM80.6525 79.568V79H81.5165V83H80.6525V82.424C80.3271 82.8773 79.8605 83.104 79.2525 83.104C78.7031 83.104 78.2338 82.9013 77.8445 82.496C77.4551 82.0907 77.2605 81.592 77.2605 81C77.2605 80.408 77.4551 79.9093 77.8445 79.504C78.2338 79.0987 78.7031 78.896 79.2525 78.896C79.8605 78.896 80.3271 79.12 80.6525 79.568ZM78.4845 81.92C78.7245 82.16 79.0258 82.28 79.3885 82.28C79.7511 82.28 80.0525 82.16 80.2925 81.92C80.5325 81.6747 80.6525 81.368 80.6525 81C80.6525 80.632 80.5325 80.328 80.2925 80.088C80.0525 79.8427 79.7511 79.72 79.3885 79.72C79.0258 79.72 78.7245 79.8427 78.4845 80.088C78.2445 80.328 78.1245 80.632 78.1245 81C78.1245 81.3627 78.2445 81.6693 78.4845 81.92ZM85.4195 78.44H83.1795V77.688H85.4195V78.44ZM83.3715 81.536L85.4195 79H86.0835V83H85.2355V80.456L83.1875 83H82.5235V79H83.3715V81.536ZM89.782 80.592V79H90.646V83H89.782V81.408H87.95V83H87.086V79H87.95V80.592H89.782Z" fill="white"/>
<defs>
<filter id="filter0_d_668:2" x="0" y="0" width="137" height="137" filterUnits="userSpaceOnUse" color-interpolation-filters="sRGB">
<feFlood flood-opacity="0" result="BackgroundImageFix"/>
<feColorMatrix in="SourceAlpha" type="matrix" values="0 0 0 0 0 0 0 0 0 0 0 0 0 0 0 0 0 0 127 0" result="hardAlpha"/>
<feOffset dy="4"/>
<feGaussianBlur stdDeviation="15"/>
<feColorMatrix type="matrix" values="0 0 0 0 0 0 0 0 0 0 0 0 0 0 0 0 0 0 0.15 0"/>
<feBlend mode="normal" in2="BackgroundImageFix" result="effect1_dropShadow_668:2"/>
<feBlend mode="normal" in="SourceGraphic" in2="effect1_dropShadow_668:2" result="shape"/>
</filter>
<filter id="filter1_d_668:2" x="4" y="4" width="129" height="129" filterUnits="userSpaceOnUse" color-interpolation-filters="sRGB">
<feFlood flood-opacity="0" result="BackgroundImageFix"/>
<feColorMatrix in="SourceAlpha" type="matrix" values="0 0 0 0 0 0 0 0 0 0 0 0 0 0 0 0 0 0 127 0" result="hardAlpha"/>
<feOffset dy="4"/>
<feGaussianBlur stdDeviation="15"/>
<feColorMatrix type="matrix" values="0 0 0 0 0 0 0 0 0 0 0 0 0 0 0 0 0 0 0.25 0"/>
<feBlend mode="normal" in2="BackgroundImageFix" result="effect1_dropShadow_668:2"/>
<feBlend mode="normal" in="SourceGraphic" in2="effect1_dropShadow_668:2" result="shape"/>
</filter>
</defs>
</svg>
