<svg width="27" height="27" viewBox="0 0 27 27" fill="none" xmlns="http://www.w3.org/2000/svg">
<path d="M26.9081 26.2719L24.4186 20.5632C24.2841 20.1605 23.9626 19.8448 23.5578 19.7186L17.1165 17.6688L16.4267 15.9445L18.4633 13.5005C18.5294 13.4207 18.5656 13.321 18.5656 13.2178V12.3358H19.0066C19.736 12.3358 20.3296 11.7422 20.3296 11.0128V9.24878C20.3296 8.51936 19.736 7.92577 19.0066 7.92577H18.5656V7.48476H19.0066C19.1288 7.48476 19.2461 7.43405 19.329 7.34452C19.4123 7.255 19.4551 7.13461 19.4463 7.01245L19.1226 2.47673C19.0406 1.32836 18.0748 0.428711 16.9229 0.428711H10.6276C9.41171 0.428711 8.42254 1.41788 8.42254 2.63373V7.04376C8.42254 7.28719 8.61967 7.48476 8.86354 7.48476V7.92577H8.42254C7.69312 7.92577 7.09953 8.51936 7.09953 9.24878V11.0128C7.09953 11.7422 7.69312 12.3358 8.42254 12.3358H8.86354V13.2178C8.86354 13.321 8.8997 13.4207 8.96541 13.5L10.9945 15.9353L10.1896 17.7438L7.96698 18.4384L3.87094 19.7186C3.4661 19.8448 3.14461 20.1605 3.02422 20.5265L0.521083 26.2719C0.461548 26.4082 0.475219 26.5656 0.556363 26.6896C0.63839 26.8139 0.776865 26.8889 0.925483 26.8889H26.5037C26.6523 26.8889 26.7908 26.8139 26.8728 26.6896C26.9539 26.5652 26.9676 26.4082 26.9081 26.2719ZM18.5656 8.80777H19.0066C19.25 8.80777 19.4476 9.00578 19.4476 9.24878V11.0128C19.4476 11.2558 19.25 11.4538 19.0066 11.4538H18.5656V8.80777ZM8.86354 11.4538H8.42254C8.1791 11.4538 7.98153 11.2558 7.98153 11.0128V9.24878C7.98153 9.00578 8.1791 8.80777 8.42254 8.80777H8.86354V11.4538ZM16.929 18.5711L18.5065 19.0642L15.6603 21.413L14.4978 19.9603L16.929 18.5711ZM14.8876 22.0052L13.7146 23.1783L12.5415 22.0052L13.7146 20.5389L14.8876 22.0052ZM11.1131 17.8386L11.7398 16.431L13.5505 17.1555C13.6034 17.1762 13.659 17.1868 13.7146 17.1868C13.7701 17.1868 13.8257 17.1762 13.8782 17.1555L15.674 16.4371L16.2495 17.8766L13.7146 19.3248L11.1131 17.8386ZM9.30454 2.63373C9.30454 1.90431 9.89813 1.31072 10.6276 1.31072H16.9229C17.6135 1.31072 18.1934 1.85051 18.2428 2.53935L18.533 6.60276H17.6836H15.4786C13.4301 6.60276 12.3916 5.86099 12.3916 4.39774C12.3916 4.15431 12.1944 3.95674 11.9506 3.95674C11.7067 3.95674 11.5096 4.15431 11.5096 4.39774C11.5096 5.61359 10.5204 6.60276 9.30454 6.60276V2.63373ZM9.74555 13.0582V7.45125C10.6717 7.31806 11.4672 6.77342 11.9378 6.00784C12.5397 6.96217 13.7596 7.48476 15.4786 7.48476H17.6836V13.0582L15.6523 15.4956L13.7146 16.2709L11.7768 15.496L9.74555 13.0582ZM10.5151 18.5658L13.0434 19.9656L11.8857 21.4125L9.00731 19.0373L10.5151 18.5658ZM11.6066 26.0069H1.59845L3.84757 20.8414C3.89211 20.7074 3.99928 20.6024 4.13378 20.5601L8.00182 19.3513L11.6546 22.366L12.3439 23.0553L11.6066 26.0069ZM12.5155 26.0069L13.0712 23.7825L13.4023 24.1137C13.4888 24.1997 13.6017 24.2429 13.7146 24.2429C13.8275 24.2429 13.9404 24.1997 14.0264 24.1137L14.3576 23.7825L14.9137 26.0069H12.5155ZM15.8226 26.0069L15.0848 23.0553L15.6748 22.4652C15.748 22.4515 15.8182 22.4264 15.8764 22.3783L19.512 19.3782L19.7025 19.4377L18.1471 24.1035C18.0999 24.2455 18.1273 24.4016 18.2207 24.5185L19.4115 26.0069H15.8226ZM19.06 24.1547L20.5444 19.7006L21.2544 19.9224L21.6372 24.5167L20.3662 25.7877L19.06 24.1547ZM21.3942 26.0069L22.4054 24.9957C22.4972 24.9039 22.5435 24.7765 22.5329 24.6473L22.1629 20.2064L23.2954 20.5601C23.4303 20.602 23.5375 20.7069 23.5961 20.878L25.8307 26.0069H21.3942Z" fill="white"/>
</svg>
