<svg width="23" height="22" viewBox="0 0 23 22" fill="none" xmlns="http://www.w3.org/2000/svg">
<path d="M18.7605 15.4857C17.6462 15.2906 16.5825 14.9248 15.6057 14.4006C15.128 14.1384 14.4755 14.188 14.1097 14.4522L11.7927 15.6388C9.64111 13.9564 8.435 12.239 7.59775 9.66465L9.44615 7.93393C9.90383 7.61308 10.143 7.06923 10.069 6.50668C9.90734 5.40414 9.92399 4.27991 10.1191 3.16508C10.2602 2.35974 9.71969 1.58984 8.91438 1.44887L5.57183 0.86371C4.76652 0.722732 3.99663 1.26323 3.85565 2.06853C2.23966 11.2995 8.43475 20.1239 17.6657 21.7399C18.471 21.8808 19.2409 21.3403 19.3818 20.535L19.9654 17.2018C20.1063 16.3965 19.5658 15.6266 18.7605 15.4857Z" fill="white"/>
</svg>
